<svg width="1440" height="427" viewBox="0 0 1440 427" fill="none" xmlns="http://www.w3.org/2000/svg">
<path opacity="0.492908" fill-rule="evenodd" clip-rule="evenodd" d="M-12.68 231.263C-12.68 231.263 113.001 357.42 297.06 357.42C481.119 357.42 537.593 215.897 744.077 231.15C950.561 246.403 1058.91 324.721 1237.37 336.474C1584.48 359.333 1829 282.944 1829 282.944L1735.67 426L-67 388.095L-12.68 231.263Z" fill="#424242"/>
<path opacity="0.0518043" fill-rule="evenodd" clip-rule="evenodd" d="M1817.59 213.85C1817.59 213.85 1708.87 354.407 1525.07 364.037C1341.27 373.668 1335.77 291.141 1130.38 317.152C924.987 343.162 926.289 388.412 748.69 409.467C670.148 418.778 518.452 195.328 221.945 323.098C-74.5624 450.868 -564.688 124.807 -564.688 124.807L-147.493 410.545L1817.46 426.143L1817.59 213.85Z" fill="white"/>
<path fill-rule="evenodd" clip-rule="evenodd" d="M-14.2444 326.364C-14.2444 326.364 23.1532 410.22 185.378 410.22C347.602 410.22 390.788 290.138 572.778 305.329C754.767 320.519 850.26 398.516 1007.56 410.22C1313.49 432.985 1529 356.91 1529 356.91L1512.53 438L-31 422.439L-14.2444 326.364Z" fill="#303030"/>
</svg>
